REM DIRINDEX 1\2,1\3,1\4,1\6,1\5\7,1\5\8
REM DIRNAME cjc114,folder01,folder02,folder03,folder04,folder05,folder06,folder07
TITLE ""
FILE "DB4500_5th_3B_06.mp3" MP3
  TRACK 01 AUDIO
    TITLE "0:"
    INDEX 01 00:00:00
  TRACK 02 AUDIO
    TITLE "2:cjc114_1820"
    INDEX 01 00:00:03
  TRACK 03 AUDIO
    TITLE "0:"
    INDEX 01 00:01:28
  TRACK 04 AUDIO
    TITLE "3:cjc114_1821"
    INDEX 01 00:01:50
  TRACK 05 AUDIO
    TITLE "0:"
    INDEX 01 00:02:73
  TRACK 06 AUDIO
    TITLE "4:cjc114_1822"
    INDEX 01 00:03:23
  TRACK 07 AUDIO
    TITLE "0:"
    INDEX 01 00:06:00
  TRACK 08 AUDIO
    TITLE "2:cjc114_1823"
    INDEX 01 00:06:49
  TRACK 09 AUDIO
    TITLE "0:"
    INDEX 01 00:08:03
  TRACK 10 AUDIO
    TITLE "3:cjc114_1824"
    INDEX 01 00:08:28
  TRACK 11 AUDIO
    TITLE "0:"
    INDEX 01 00:09:34
  TRACK 12 AUDIO
    TITLE "4:cjc114_1825"
    INDEX 01 00:09:59
  TRACK 13 AUDIO
    TITLE "0:"
    INDEX 01 00:13:18
  TRACK 14 AUDIO
    TITLE "2:cjc114_1826"
    INDEX 01 00:13:67
  TRACK 15 AUDIO
    TITLE "0:"
    INDEX 01 00:15:13
  TRACK 16 AUDIO
    TITLE "3:cjc114_1827"
    INDEX 01 00:15:34
  TRACK 17 AUDIO
    TITLE "0:"
    INDEX 01 00:16:63
  TRACK 18 AUDIO
    TITLE "4:cjc114_1828"
    INDEX 01 00:17:14
  TRACK 19 AUDIO
    TITLE "0:"
    INDEX 01 00:20:36
  TRACK 20 AUDIO
    TITLE "2:cjc114_1829"
    INDEX 01 00:21:11
  TRACK 21 AUDIO
    TITLE "0:"
    INDEX 01 00:22:27
  TRACK 22 AUDIO
    TITLE "3:cjc114_1830"
    INDEX 01 00:22:52
  TRACK 23 AUDIO
    TITLE "0:"
    INDEX 01 00:24:00
  TRACK 24 AUDIO
    TITLE "4:cjc114_1831"
    INDEX 01 00:24:25
  TRACK 25 AUDIO
    TITLE "0:"
    INDEX 01 00:27:36
  TRACK 26 AUDIO
    TITLE "2:cjc114_1832"
    INDEX 01 00:28:12
  TRACK 27 AUDIO
    TITLE "0:"
    INDEX 01 00:29:38
  TRACK 28 AUDIO
    TITLE "3:cjc114_1833"
    INDEX 01 00:29:66
  TRACK 29 AUDIO
    TITLE "0:"
    INDEX 01 00:31:26
  TRACK 30 AUDIO
    TITLE "4:cjc114_1834"
    INDEX 01 00:31:55
  TRACK 31 AUDIO
    TITLE "0:"
    INDEX 01 00:34:69
  TRACK 32 AUDIO
    TITLE "2:cjc114_1835"
    INDEX 01 00:35:47
  TRACK 33 AUDIO
    TITLE "0:"
    INDEX 01 00:36:56
  TRACK 34 AUDIO
    TITLE "3:cjc114_1836"
    INDEX 01 00:37:08
  TRACK 35 AUDIO
    TITLE "0:"
    INDEX 01 00:38:41
  TRACK 36 AUDIO
    TITLE "4:cjc114_1837"
    INDEX 01 00:38:73
  TRACK 37 AUDIO
    TITLE "0:"
    INDEX 01 00:42:08
  TRACK 38 AUDIO
    TITLE "2:cjc114_1838"
    INDEX 01 00:42:61
  TRACK 39 AUDIO
    TITLE "0:"
    INDEX 01 00:43:62
  TRACK 40 AUDIO
    TITLE "3:cjc114_1839"
    INDEX 01 00:44:14
  TRACK 41 AUDIO
    TITLE "0:"
    INDEX 01 00:45:51
  TRACK 42 AUDIO
    TITLE "4:cjc114_1840"
    INDEX 01 00:46:06
  TRACK 43 AUDIO
    TITLE "0:"
    INDEX 01 00:48:59
  TRACK 44 AUDIO
    TITLE "2:cjc114_1841"
    INDEX 01 00:49:39
  TRACK 45 AUDIO
    TITLE "0:"
    INDEX 01 00:50:37
  TRACK 46 AUDIO
    TITLE "3:cjc114_1842"
    INDEX 01 00:50:64
  TRACK 47 AUDIO
    TITLE "0:"
    INDEX 01 00:52:18
  TRACK 48 AUDIO
    TITLE "4:cjc114_1843"
    INDEX 01 00:52:47
  TRACK 49 AUDIO
    TITLE "0:"
    INDEX 01 00:56:51
  TRACK 50 AUDIO
    TITLE "2:cjc114_1844"
    INDEX 01 00:57:29
  TRACK 51 AUDIO
    TITLE "0:"
    INDEX 01 00:58:28
  TRACK 52 AUDIO
    TITLE "3:cjc114_1845"
    INDEX 01 00:58:58
  TRACK 53 AUDIO
    TITLE "0:"
    INDEX 01 01:00:25
  TRACK 54 AUDIO
    TITLE "4:cjc114_1846"
    INDEX 01 01:00:55
  TRACK 55 AUDIO
    TITLE "0:"
    INDEX 01 01:02:59
  TRACK 56 AUDIO
    TITLE "2:cjc114_1847"
    INDEX 01 01:03:39
  TRACK 57 AUDIO
    TITLE "0:"
    INDEX 01 01:04:41
  TRACK 58 AUDIO
    TITLE "3:cjc114_1848"
    INDEX 01 01:04:70
  TRACK 59 AUDIO
    TITLE "0:"
    INDEX 01 01:06:08
  TRACK 60 AUDIO
    TITLE "4:cjc114_1849"
    INDEX 01 01:06:38
  TRACK 61 AUDIO
    TITLE "0:"
    INDEX 01 01:09:22
  TRACK 62 AUDIO
    TITLE "2:cjc114_1850"
    INDEX 01 01:10:02
  TRACK 63 AUDIO
    TITLE "0:"
    INDEX 01 01:11:03
  TRACK 64 AUDIO
    TITLE "3:cjc114_1851"
    INDEX 01 01:11:31
  TRACK 65 AUDIO
    TITLE "0:"
    INDEX 01 01:12:40
  TRACK 66 AUDIO
    TITLE "4:cjc114_1852"
    INDEX 01 01:12:66
  TRACK 67 AUDIO
    TITLE "0:"
    INDEX 01 01:16:56
  TRACK 68 AUDIO
    TITLE "2:cjc114_1853"
    INDEX 01 01:17:33
  TRACK 69 AUDIO
    TITLE "0:"
    INDEX 01 01:18:51
  TRACK 70 AUDIO
    TITLE "3:cjc114_1854"
    INDEX 01 01:19:05
  TRACK 71 AUDIO
    TITLE "0:"
    INDEX 01 01:20:42
  TRACK 72 AUDIO
    TITLE "4:cjc114_1855"
    INDEX 01 01:20:69
  TRACK 73 AUDIO
    TITLE "0:"
    INDEX 01 01:24:59
